<?xml version="1.0" standalone="no"?>
<!DOCTYPE svg PUBLIC "-//W3C//DTD SVG 20010904//EN"
 "http://www.w3.org/TR/2001/REC-SVG-20010904/DTD/svg10.dtd">
<svg version="1.0" xmlns="http://www.w3.org/2000/svg"
 width="400.000000pt" height="400.000000pt" viewBox="0 0 400.000000 400.000000"
 preserveAspectRatio="xMidYMid meet">
<metadata>
Created by potrace 1.11, written by Peter Selinger 2001-2013
</metadata>
<g transform="translate(0.000000,400.000000) scale(0.100000,-0.100000)"
fill="#000000" stroke="none">
<path d="M1350 3553 c-64 -23 -129 -57 -123 -66 3 -5 2 -7 -4 -4 -13 8 -79
-41 -75 -56 2 -7 0 -9 -4 -5 -4 4 -22 -1 -40 -13 -31 -19 -107 -44 -169 -55
-16 -3 -48 -10 -70 -16 -22 -6 -49 -13 -59 -15 -10 -2 -40 -12 -65 -24 -25
-11 -58 -25 -73 -32 -16 -6 -28 -15 -28 -19 0 -5 -6 -8 -12 -8 -7 0 -31 -16
-53 -36 l-40 -35 2 -97 c1 -54 10 -137 21 -187 11 -49 24 -120 27 -157 4 -38
11 -68 15 -68 4 0 7 -12 8 -27 0 -52 2 -58 29 -87 l26 -29 45 49 c102 112 119
128 152 149 74 47 172 77 270 85 130 10 192 45 274 153 31 40 68 51 59 17 -3
-11 -2 -28 2 -37 20 -49 14 -72 -29 -97 -22 -13 -50 -32 -61 -41 -31 -24 -177
-114 -196 -120 -9 -3 -26 -27 -39 -53 -12 -26 -26 -54 -31 -64 -28 -55 -60
-288 -40 -288 5 0 7 -12 5 -26 -1 -15 6 -54 16 -88 11 -33 18 -61 17 -62 -1
-2 -121 -6 -266 -11 -274 -8 -300 -13 -248 -48 42 -27 159 -56 247 -61 166 -9
252 -31 305 -78 34 -30 110 -157 121 -203 4 -13 14 -29 24 -36 9 -6 19 -16 21
-22 7 -19 43 -55 55 -55 7 0 14 -5 16 -11 2 -6 16 -11 31 -11 15 0 27 -3 27
-7 0 -3 -24 -29 -52 -56 -84 -82 -180 -187 -174 -192 5 -5 -2 -15 -32 -48 -7
-8 -11 -15 -8 -15 8 0 -25 -92 -43 -120 -35 -55 -41 -66 -52 -90 -6 -14 -13
-43 -16 -65 -3 -22 -6 -47 -7 -57 -1 -9 -7 -22 -13 -30 -51 -64 -83 -204 -60
-268 5 -14 9 -77 9 -140 0 -66 4 -120 10 -127 6 -7 8 -13 5 -13 -3 0 1 -16 9
-35 7 -19 14 -50 14 -70 0 -44 58 -215 76 -222 7 -2 21 -3 32 -1 19 3 19 5 -4
77 -24 76 -34 125 -39 196 -4 47 29 131 57 146 16 8 17 13 7 25 -13 16 -59 16
-70 0 -4 -5 -14 -6 -22 -3 -13 5 -13 11 0 54 28 90 62 161 86 178 17 12 16 13
-6 28 -21 14 -27 14 -52 1 -16 -8 -33 -22 -40 -31 -21 -28 -25 2 -9 58 9 30
25 66 35 81 11 14 19 31 19 37 0 6 5 11 10 11 6 0 10 6 10 13 1 16 30 50 63
71 38 25 35 45 -5 43 -30 -2 -33 0 -31 25 2 38 83 140 149 189 30 22 54 44 54
48 0 10 -35 8 -64 -4 -17 -7 -17 -6 -6 16 24 44 112 132 154 154 13 7 41 18
63 25 21 7 43 16 49 21 6 5 14 6 17 3 3 -4 14 -3 24 1 23 10 31 12 71 13 20 1
32 7 32 16 0 18 -45 34 -87 30 -18 -1 -33 1 -33 5 0 7 54 41 67 43 5 0 19 8
33 18 38 26 69 33 138 31 69 -3 82 -4 135 -19 20 -6 38 -8 41 -5 3 3 17 -2 32
-11 14 -10 29 -15 32 -11 7 7 -50 55 -59 49 -4 -2 -12 3 -19 11 -7 9 -21 13
-31 10 -9 -3 -20 -1 -24 5 -3 5 -22 10 -41 10 -32 0 -34 2 -20 15 8 8 26 15
40 15 14 0 27 4 30 9 6 9 64 25 83 22 6 -1 14 3 18 8 3 6 12 8 19 5 8 -3 17 0
21 6 5 8 10 8 20 0 7 -6 17 -10 21 -8 16 3 96 -14 152 -33 60 -21 77 -18 62
10 -8 17 -24 25 -85 46 -20 7 -20 7 1 15 12 5 57 11 100 15 72 6 87 4 169 -25
123 -43 157 -51 153 -37 -2 7 -23 21 -46 32 -76 37 -51 44 73 20 136 -26 217
-59 315 -130 109 -78 197 -167 228 -230 13 -27 32 -66 43 -85 10 -19 18 -43
19 -53 0 -9 4 -25 9 -35 11 -19 23 -52 26 -67 1 -5 3 -14 5 -20 1 -5 1 -22 0
-37 -4 -62 44 -41 56 25 10 56 7 93 -11 128 -23 43 -1 36 53 -16 25 -25 43
-45 40 -45 -4 0 7 -30 24 -67 24 -53 32 -86 35 -148 5 -94 -6 -132 -61 -207
-44 -62 -84 -91 -152 -111 -57 -17 -104 -6 -129 30 -14 20 -14 23 4 32 35 19
133 173 118 187 -2 2 -12 -5 -23 -16 -83 -88 -164 -139 -219 -140 -57 0 -83 9
-90 31 -9 28 26 71 89 110 102 63 136 172 85 274 -12 25 -21 46 -18 47 2 2 18
10 34 18 30 16 56 56 56 88 0 41 -10 76 -25 87 -9 7 -16 17 -16 23 0 10 -30
32 -44 32 -11 0 -6 -19 10 -35 9 -9 14 -19 11 -22 -4 -3 -2 -13 2 -22 13 -25
-29 -105 -57 -109 -12 -2 -52 12 -88 30 -59 30 -64 35 -59 58 18 70 14 108
-16 150 -16 22 -34 40 -40 40 -5 0 -7 5 -4 10 3 6 2 10 -2 10 -5 0 -24 14 -42
31 -34 31 -70 49 -97 49 -25 0 -15 -14 26 -40 22 -14 40 -29 40 -33 0 -5 10
-23 23 -40 37 -53 45 -73 41 -112 -3 -45 -32 -89 -63 -93 -18 -3 -21 1 -21 33
0 63 -25 105 -108 177 -45 40 -136 89 -174 94 -18 3 -38 7 -45 9 -7 2 -15 0
-18 -5 -3 -5 5 -12 17 -16 45 -14 125 -69 185 -127 64 -62 92 -121 79 -170
-10 -40 -81 -60 -129 -36 -25 13 -77 69 -77 84 0 20 -84 97 -149 138 -36 23
-68 42 -71 42 -3 0 -19 6 -36 13 -18 8 -47 12 -65 10 -34 -3 -33 -3 32 -37 67
-34 168 -118 188 -158 15 -30 14 -89 -3 -122 -18 -34 -77 -66 -88 -48 -4 7 -8
8 -8 3 0 -5 -9 -1 -20 9 -11 10 -20 26 -20 35 0 67 -80 190 -124 190 -19 0
-19 0 1 -22 31 -35 60 -102 58 -136 -3 -48 -31 -84 -63 -80 -22 2 -33 15 -60
68 -32 65 -70 100 -122 115 -24 7 -23 5 8 -23 17 -17 32 -36 32 -41 0 -6 4
-11 9 -11 15 0 43 -108 36 -140 -7 -31 -30 -50 -60 -50 -10 0 -64 47 -121 105
-58 58 -109 103 -114 100 -4 -3 -10 0 -12 6 -2 6 -26 13 -53 16 l-50 4 25 -20
c14 -12 30 -25 37 -31 7 -5 15 -10 18 -10 3 0 25 -20 49 -45 103 -109 131
-246 47 -230 -33 6 -56 24 -140 105 -78 76 -127 104 -199 116 -54 8 -54 -7 -1
-30 23 -10 75 -52 115 -93 97 -97 127 -165 98 -223 -9 -16 -25 -36 -36 -44
-19 -14 -24 -13 -48 4 -15 11 -30 16 -34 12 -4 -4 -6 -2 -4 4 4 13 -78 84 -98
84 -8 0 -14 4 -14 9 0 4 -27 14 -60 21 -46 10 -67 10 -85 2 -29 -14 -33 -32
-6 -32 42 0 159 -65 194 -107 10 -12 26 -25 37 -28 32 -10 71 -102 60 -137 -1
-5 -3 -11 -4 -15 -12 -50 -18 -55 -58 -50 -22 3 -48 13 -59 23 -10 9 -19 13
-19 8 0 -5 -4 -4 -8 1 -24 35 -120 75 -178 75 -27 -1 -73 -25 -63 -33 2 -2 26
-10 52 -17 90 -24 221 -130 235 -189 12 -52 13 -73 7 -88 -5 -10 -8 -21 -7
-24 3 -15 -48 -59 -68 -59 -11 0 -35 15 -53 33 -66 68 -148 97 -176 63 -10
-12 -4 -18 33 -35 25 -11 46 -24 46 -29 0 -4 8 -17 18 -28 9 -10 19 -28 20
-39 2 -11 7 -23 11 -27 3 -4 5 -26 3 -49 -4 -35 -9 -43 -35 -54 -39 -16 -54
-11 -94 34 -34 37 -39 34 -33 -24 2 -25 48 -105 60 -105 15 0 60 23 60 30 0 4
6 7 13 8 138 14 139 15 123 54 -7 18 -16 50 -19 71 -8 54 14 48 37 -11 29 -70
64 -119 103 -142 19 -11 38 -20 43 -20 12 0 6 60 -7 68 -18 12 -75 141 -69
157 9 25 24 17 36 -20 6 -19 16 -35 21 -35 5 0 9 -6 9 -12 0 -7 10 -25 23 -40
21 -25 24 -25 61 -14 35 10 38 13 25 26 -16 18 -23 29 -77 132 -32 60 -38 78
-30 98 5 14 7 41 3 60 -5 33 -4 34 10 16 8 -11 15 -24 15 -30 0 -5 14 -45 32
-88 37 -90 113 -184 137 -169 13 8 12 15 -5 48 -10 21 -22 40 -26 43 -3 3 -10
18 -13 33 -4 15 -12 27 -18 27 -6 0 -8 3 -5 6 4 3 -5 31 -19 62 -14 31 -32 81
-39 111 -11 48 -11 58 4 83 9 15 21 28 26 28 5 0 7 -3 3 -6 -3 -4 0 -21 7 -38
7 -17 11 -37 8 -45 -3 -9 0 -11 8 -6 9 5 11 4 6 -3 -7 -11 11 -51 29 -64 6 -4
6 -8 2 -8 -8 0 29 -69 75 -137 25 -37 47 -48 63 -31 4 3 -6 30 -22 59 -15 30
-28 58 -30 64 -1 5 -15 46 -32 90 -26 73 -38 125 -47 210 -7 64 -10 80 -18 94
-6 9 -5 12 1 8 5 -3 16 11 23 31 15 41 16 45 18 85 2 25 5 27 29 21 15 -4 33
-7 40 -7 10 0 10 -3 0 -15 -17 -21 -17 -264 1 -270 7 -2 10 -7 7 -12 -6 -10
28 -111 58 -169 38 -75 42 -81 49 -81 5 0 8 -7 8 -15 0 -8 7 -15 15 -15 19 0
19 8 -1 56 -20 47 -60 189 -64 224 -13 130 3 299 32 337 6 7 7 25 3 42 -6 29
-6 29 45 32 50 4 71 -3 51 -16 -5 -3 -17 -38 -26 -78 -19 -89 -15 -228 11
-307 l18 -55 8 85 c18 204 52 333 106 410 34 47 74 78 80 62 2 -7 12 -12 22
-12 32 0 42 -23 24 -58 -8 -17 -16 -41 -17 -52 -1 -11 -4 -20 -7 -20 -4 0 -7
-6 -8 -12 -1 -7 -6 -35 -12 -63 -6 -27 -8 -55 -5 -62 2 -7 0 -13 -5 -13 -11 0
-4 -119 11 -172 5 -21 14 -38 19 -38 12 0 12 1 15 70 4 86 12 128 45 230 37
113 71 175 117 213 18 16 40 42 49 58 l15 29 21 -20 c21 -20 21 -20 2 -37 -24
-21 -104 -138 -104 -151 0 -5 -7 -23 -15 -38 -8 -16 -18 -46 -21 -66 -4 -21
-10 -36 -14 -33 -3 2 -7 -1 -7 -8 -1 -7 -5 -30 -9 -52 -28 -139 23 -323 119
-427 45 -48 134 -103 182 -112 113 -22 183 -28 275 -23 108 5 127 8 170 25 14
5 27 9 30 9 16 -1 68 21 170 71 63 30 117 56 120 57 3 1 18 7 33 13 16 7 32
12 36 12 5 0 26 7 47 16 22 9 53 18 71 20 18 2 41 8 52 13 11 6 34 11 52 11
30 0 31 1 15 13 -18 13 -181 15 -232 4 -30 -7 -137 -54 -203 -88 -32 -17 -64
-32 -72 -34 -40 -9 -58 -18 -53 -26 3 -5 2 -8 -3 -7 -14 4 -103 -26 -103 -35
0 -4 -3 -6 -8 -3 -4 2 -30 0 -57 -6 -85 -16 -238 -5 -312 23 -16 6 -28 9 -28
8 0 -7 -83 42 -97 58 -94 100 -122 177 -122 338 0 78 32 195 71 257 13 21 23
40 23 43 0 6 4 12 50 67 28 33 82 63 93 51 6 -6 59 27 70 43 4 8 22 11 43 8
23 -3 46 1 60 11 22 14 27 14 53 0 17 -8 33 -19 36 -25 4 -6 11 -8 16 -4 9 5
53 -35 91 -83 17 -22 34 -74 33 -103 -1 -40 -30 -78 -90 -119 -61 -42 -107
-89 -111 -114 -1 -7 -3 -16 -5 -22 -5 -18 13 -60 37 -82 26 -24 123 -48 159
-39 18 5 24 1 29 -17 7 -28 57 -67 94 -73 15 -3 32 -6 39 -9 21 -7 148 25 175
45 15 11 30 20 33 20 3 0 25 20 48 44 55 58 69 76 61 76 -3 0 -2 6 3 13 6 6
18 36 27 64 30 91 8 242 -50 355 -21 41 -118 138 -137 138 -10 0 -17 5 -17 10
0 6 -13 10 -29 10 -24 0 -34 9 -66 65 -21 35 -64 91 -95 122 -55 57 -118 113
-126 113 -2 0 -26 15 -53 34 -27 19 -52 32 -55 29 -3 -4 -6 -1 -6 5 0 7 -7 12
-15 12 -8 0 -15 5 -15 11 0 6 -6 9 -14 6 -8 -3 -16 -2 -18 2 -2 4 -48 20 -103
36 -99 28 -152 33 -365 34 l-85 1 26 24 c43 40 95 108 119 156 30 59 61 150
55 160 -3 5 -1 11 4 14 25 16 36 188 17 271 -2 11 -6 27 -8 35 -6 28 -36 29
-114 2 -57 -20 -78 -24 -81 -14 -3 6 -9 12 -15 12 -19 0 -43 35 -55 80 -9 34
-18 201 -11 208 5 5 9 21 11 37 2 17 6 37 10 45 3 8 21 58 38 110 18 52 39
105 47 117 36 57 -16 66 -90 17 -21 -13 -44 -24 -52 -24 -8 0 -16 -3 -18 -8
-1 -4 -54 -41 -115 -82 -62 -41 -113 -78 -113 -82 0 -5 -7 -8 -15 -8 -8 0 -15
-4 -15 -8 0 -5 -11 -14 -25 -20 l-25 -12 14 33 c30 70 70 152 75 157 14 12 61
112 61 129 0 14 -6 19 -22 18 -36 -2 -258 -122 -258 -139 0 -4 -7 -8 -15 -8
-8 0 -15 -4 -15 -10 0 -5 -5 -10 -10 -10 -10 0 -110 -66 -120 -79 -9 -11 -92
-63 -96 -59 -2 2 -5 34 -6 71 -2 37 -6 67 -9 67 -4 0 -7 12 -6 28 0 15 -3 41
-7 57 -3 17 -9 53 -12 80 -3 28 -8 54 -11 58 -3 4 -7 27 -10 50 -2 23 -9 62
-14 87 -5 25 -11 65 -14 89 -3 24 -8 48 -11 52 -6 10 -60 11 -84 2z m24 -80
c13 -47 36 -195 31 -203 -3 -5 -1 -11 4 -15 5 -3 9 -13 9 -23 0 -9 2 -30 5
-47 3 -16 8 -53 12 -81 6 -50 6 -51 -24 -64 -17 -7 -59 -41 -93 -77 -79 -82
-120 -103 -195 -103 -32 0 -82 -7 -110 -14 -29 -8 -53 -12 -53 -10 0 7 -123
-57 -175 -92 -27 -18 -61 -49 -74 -68 -13 -20 -27 -34 -31 -31 -4 2 -10 24
-13 47 -3 24 -9 59 -12 78 -30 166 -55 325 -55 343 0 42 181 154 255 159 17 1
35 5 41 10 7 5 28 9 48 10 20 1 36 4 36 7 0 3 14 7 31 7 17 1 34 5 38 10 3 5
14 10 25 12 36 6 62 21 161 91 104 73 130 83 139 54z m596 -343 c-6 -11 -13
-20 -16 -20 -2 0 0 9 6 20 6 11 13 20 16 20 2 0 0 -9 -6 -20z m15 -30 c-3 -5
-12 -10 -18 -10 -7 0 -6 4 3 10 19 12 23 12 15 0z m-102 -25 c-3 -9 -8 -14
-10 -11 -3 3 -2 9 2 15 9 16 15 13 8 -4z m77 -227 c0 -2 -9 -26 -20 -55 -31
-81 -62 -203 -65 -258 -2 -27 -5 -52 -6 -55 -1 -3 -1 -9 1 -15 1 -7 -2 -6 -9
0 -22 21 -7 226 19 275 5 10 7 20 3 23 -3 3 1 12 8 20 8 7 23 26 34 40 16 22
35 35 35 25z m-729 -409 c-11 -63 -7 -230 8 -308 13 -65 13 -61 2 -61 -5 0
-19 21 -31 48 -29 62 -36 184 -13 267 8 33 16 65 18 70 1 6 5 18 10 28 13 32
17 11 6 -44z m1044 39 c41 -4 45 -16 12 -33 -51 -26 -221 -97 -262 -109 -31
-9 -41 -17 -43 -36 -12 -119 -20 -133 -42 -80 -7 17 -17 30 -23 30 -6 0 -8 3
-4 6 3 4 0 19 -8 34 -8 15 -16 38 -19 51 -3 13 -8 33 -11 45 -5 17 0 24 28 37
19 10 41 17 49 17 8 0 18 4 24 9 28 28 170 42 299 29z m-905 -104 c0 -8 -19
-13 -24 -6 -3 5 1 9 9 9 8 0 15 -2 15 -3z m1115 -225 c-4 -12 -8 -27 -9 -33
-15 -81 -171 -276 -222 -276 -30 0 -39 15 -18 32 21 17 121 116 155 154 14 16
38 52 53 79 37 66 36 65 42 65 3 0 2 -10 -1 -21z m-875 -100 c7 -11 14 -42 16
-67 3 -26 9 -62 14 -80 8 -32 8 -33 -18 -31 -15 2 -31 6 -37 10 -5 3 -22 9
-37 13 -50 12 -158 91 -158 116 0 8 142 49 202 59 4 0 12 -8 18 -20z m241 11
c29 -6 57 -14 62 -19 14 -14 -28 -70 -88 -119 -22 -17 -100 -50 -106 -44 -10
11 -39 173 -33 183 7 12 99 11 165 -1z m317 -199 c21 -13 -6 -27 -65 -34 -29
-3 -85 -16 -125 -28 -88 -27 -77 -24 -113 -33 -16 -4 -39 -11 -50 -16 -11 -5
-30 -12 -42 -15 -13 -4 -23 -11 -23 -16 0 -6 -4 -8 -8 -5 -11 7 -116 -45 -132
-65 -11 -14 -76 -49 -92 -49 -21 0 -17 27 8 44 22 15 86 52 127 73 15 8 27 19
27 25 0 6 3 8 7 5 3 -4 16 -1 27 6 12 8 62 26 111 41 50 15 108 32 130 39 22
6 43 13 48 13 4 1 10 3 15 4 4 1 14 2 23 1 8 -1 26 3 40 8 30 12 70 13 87 2z
m-588 -1290 c0 -5 3 -17 7 -27 4 -11 3 -15 -4 -11 -14 9 -24 47 -12 47 5 0 9
-4 9 -9z"/>
<path d="M995 3260 c-3 -5 -14 -10 -23 -10 -10 0 -30 -14 -45 -31 -33 -37 -36
-88 -8 -113 11 -10 22 -29 26 -44 3 -14 9 -22 13 -16 4 5 20 10 36 12 40 4 86
29 86 46 0 8 6 16 14 19 31 12 46 50 35 90 -8 30 -16 38 -47 47 -47 13 -79 13
-87 0z m65 -100 c0 -11 -2 -20 -4 -20 -2 0 -11 -3 -20 -6 -19 -7 -22 16 -4 34
18 18 28 15 28 -8z m-82 -22 c-5 -15 -23 -11 -26 6 -2 11 2 14 13 10 9 -4 14
-11 13 -16z"/>
<path d="M1238 3193 c0 -5 -2 -12 -3 -18 -2 -5 -3 -18 -4 -27 0 -10 -4 -17 -8
-16 -5 2 -18 -6 -31 -17 -12 -11 -25 -19 -27 -17 -3 1 -29 -15 -59 -37 l-53
-39 -119 9 c-100 9 -121 13 -133 30 -7 10 -22 19 -33 19 -16 0 -18 -5 -12 -37
4 -21 7 -39 8 -40 1 -2 17 2 36 7 18 5 45 7 59 3 29 -8 39 -9 94 -11 39 -2 46
-17 16 -33 -8 -4 -42 -24 -77 -43 -35 -20 -71 -36 -81 -36 -27 0 -36 -31 -11
-37 11 -3 20 -9 20 -14 0 -17 29 -9 35 10 3 11 27 30 53 42 26 13 49 25 52 29
3 3 32 22 65 42 55 33 67 36 139 37 44 0 85 -4 92 -10 15 -12 37 -3 29 12 -4
5 -1 9 4 9 6 0 11 11 11 25 0 30 -7 31 -40 5 -18 -14 -41 -20 -80 -20 l-55 0
60 55 c35 31 70 55 83 55 26 0 28 17 6 48 -15 22 -33 29 -36 15z"/>
<path d="M2107 504 c-6 -6 19 -64 33 -74 3 -3 20 -25 37 -50 42 -61 163 -175
215 -201 23 -12 48 -28 56 -36 14 -13 51 -32 77 -39 6 -1 44 -15 85 -32 41
-16 107 -35 145 -42 88 -15 287 -10 293 8 2 7 11 19 19 27 17 18 10 45 -12 45
-8 0 -15 -3 -15 -7 0 -16 -264 4 -345 27 -114 31 -195 61 -195 72 0 5 -4 6
-10 3 -5 -3 -15 -1 -22 5 -7 6 -38 28 -69 48 -92 60 -130 93 -204 173 -72 79
-77 83 -88 73z"/>
<path d="M3531 439 c-12 -5 -27 -7 -32 -3 -5 3 -9 2 -9 -3 0 -4 -14 -9 -31 -9
-45 -2 -233 -99 -249 -129 -7 -13 -17 -22 -22 -19 -4 3 -8 0 -8 -6 0 -6 -4 -9
-10 -5 -10 6 -50 -29 -50 -44 0 -11 39 -2 59 13 11 8 13 8 8 -1 -4 -6 39 14
95 44 57 30 130 66 163 79 57 24 85 32 183 55 45 11 56 28 20 30 -13 1 -39 3
-58 4 -19 1 -46 -2 -59 -6z"/>
<path d="M2417 380 c3 -11 9 -17 14 -14 5 3 9 -2 9 -10 0 -8 9 -20 21 -26 11
-6 33 -25 50 -42 16 -17 29 -27 29 -22 0 5 4 5 8 -1 15 -22 97 -62 182 -90 87
-29 261 -25 302 7 23 17 22 18 -62 19 -109 3 -105 2 -175 23 -121 35 -282 105
-325 141 -8 7 -25 17 -37 24 -18 9 -20 8 -16 -9z"/>
<path d="M2033 336 c31 -46 87 -102 87 -85 0 8 -16 33 -35 55 -19 21 -35 42
-35 47 0 4 -7 7 -16 7 -15 0 -15 -2 -1 -24z"/>
<path d="M3608 315 c-2 -3 -21 -7 -42 -10 -21 -2 -44 -10 -52 -16 -8 -6 -14
-9 -14 -6 0 8 -123 -44 -130 -55 -5 -6 -137 -71 -150 -73 -3 0 -11 -4 -19 -9
-10 -7 -1 -13 35 -22 64 -17 70 -17 88 2 9 9 22 17 29 18 6 1 34 16 61 34 27
17 53 29 57 26 5 -3 9 0 9 5 0 6 7 11 15 11 9 0 33 11 55 25 22 14 40 22 40
19 0 -4 7 0 17 7 9 8 18 13 19 12 2 -2 18 0 35 4 20 4 27 9 20 16 -11 11 -65
20 -73 12z"/>
<path d="M2117 137 c-5 -16 16 -48 66 -97 34 -35 46 -41 75 -38 l35 3 -73 60
c-40 33 -78 66 -85 72 -11 10 -14 10 -18 0z"/>
<path d="M3538 136 c-13 -5 -32 -11 -43 -13 -11 -2 -54 -16 -95 -32 -69 -26
-75 -31 -78 -60 -3 -25 0 -31 17 -31 11 0 26 6 33 13 37 33 113 69 156 74 18
2 56 12 85 23 29 11 60 20 69 20 9 0 20 5 23 11 9 13 -134 9 -167 -5z"/>
<path d="M1711 79 c-18 -7 -21 -12 -12 -23 7 -8 11 -18 10 -22 -5 -28 4 -32
71 -33 80 -1 86 8 44 58 -27 33 -65 39 -113 20z"/>
<path d="M1322 54 c-62 -27 -82 -66 -22 -42 36 15 83 15 98 0 8 -7 41 -12 85
-12 l72 0 -26 25 c-13 14 -36 28 -49 31 -50 10 -133 9 -158 -2z"/>
<path d="M3175 59 c-4 -5 -15 -9 -27 -9 -14 0 -18 -5 -14 -16 3 -9 6 -20 6
-25 0 -5 32 -9 70 -9 67 0 70 1 60 20 -17 32 -83 59 -95 39z"/>
<path d="M2419 19 l-34 -18 110 -1 c103 0 108 1 87 16 -34 23 -122 25 -163 3z"/>
<path d="M3473 28 c-64 -17 -46 -28 46 -28 76 0 89 2 85 15 -4 8 -14 15 -23
16 -9 1 -29 2 -46 4 -16 1 -44 -2 -62 -7z"/>
</g>
</svg>
